<mxfile host="app.diagrams.net" modified="2020-12-06T03:01:55.317Z" agent="5.0 (Windows NT 10.0; Win64; x64) AppleWebKit/537.36 (KHTML, like Gecko) Chrome/87.0.4280.88 Safari/537.36" etag="OodlA6p0LvsOKkBc1CJU" version="13.10.9" type="github">
  <diagram id="C5RBs43oDa-KdzZeNtuy" name="Page-1">
    <mxGraphModel dx="3076" dy="1907" grid="0" gridSize="1" guides="1" tooltips="1" connect="1" arrows="1" fold="1" page="1" pageScale="1" pageWidth="827" pageHeight="1169" math="0" shadow="0">
      <root>
        <mxCell id="WIyWlLk6GJQsqaUBKTNV-0" />
        <mxCell id="WIyWlLk6GJQsqaUBKTNV-1" parent="WIyWlLk6GJQsqaUBKTNV-0" />
        <mxCell id="arrxK9u_b5UNdcoeQI_R-44" style="edgeStyle=orthogonalEdgeStyle;rounded=0;orthogonalLoop=1;jettySize=auto;html=1;exitX=0.5;exitY=1;exitDx=0;exitDy=0;entryX=0.5;entryY=0;entryDx=0;entryDy=0;" parent="WIyWlLk6GJQsqaUBKTNV-1" source="WIyWlLk6GJQsqaUBKTNV-6" target="arrxK9u_b5UNdcoeQI_R-12" edge="1">
          <mxGeometry relative="1" as="geometry" />
        </mxCell>
        <mxCell id="WIyWlLk6GJQsqaUBKTNV-6" value="True" style="rhombus;whiteSpace=wrap;html=1;shadow=0;fontFamily=Helvetica;fontSize=12;align=center;strokeWidth=1;spacing=6;spacingTop=-4;" parent="WIyWlLk6GJQsqaUBKTNV-1" vertex="1">
          <mxGeometry x="1132" y="253.97" width="100" height="80" as="geometry" />
        </mxCell>
        <mxCell id="arrxK9u_b5UNdcoeQI_R-56" style="edgeStyle=orthogonalEdgeStyle;rounded=0;orthogonalLoop=1;jettySize=auto;html=1;exitX=0.5;exitY=1;exitDx=0;exitDy=0;entryX=0;entryY=0.5;entryDx=0;entryDy=0;" parent="WIyWlLk6GJQsqaUBKTNV-1" source="arrxK9u_b5UNdcoeQI_R-1" target="Kb7l_ePSBx4M9OJZE0mj-5" edge="1">
          <mxGeometry relative="1" as="geometry">
            <mxPoint x="1348.5" y="400.97" as="targetPoint" />
          </mxGeometry>
        </mxCell>
        <mxCell id="arrxK9u_b5UNdcoeQI_R-1" value="Detect bounding boxes for people" style="rounded=1;whiteSpace=wrap;html=1;fontSize=12;glass=0;strokeWidth=1;shadow=0;" parent="WIyWlLk6GJQsqaUBKTNV-1" vertex="1">
          <mxGeometry x="1288.5" y="314.97" width="120" height="40" as="geometry" />
        </mxCell>
        <mxCell id="arrxK9u_b5UNdcoeQI_R-19" style="edgeStyle=orthogonalEdgeStyle;rounded=0;orthogonalLoop=1;jettySize=auto;html=1;exitX=0.5;exitY=1;exitDx=0;exitDy=0;entryX=0.5;entryY=0;entryDx=0;entryDy=0;" parent="WIyWlLk6GJQsqaUBKTNV-1" source="arrxK9u_b5UNdcoeQI_R-8" target="WIyWlLk6GJQsqaUBKTNV-6" edge="1">
          <mxGeometry relative="1" as="geometry" />
        </mxCell>
        <mxCell id="arrxK9u_b5UNdcoeQI_R-8" value="Start" style="ellipse;whiteSpace=wrap;html=1;" parent="WIyWlLk6GJQsqaUBKTNV-1" vertex="1">
          <mxGeometry x="1147" y="169.97" width="70" height="54" as="geometry" />
        </mxCell>
        <mxCell id="arrxK9u_b5UNdcoeQI_R-45" style="edgeStyle=orthogonalEdgeStyle;rounded=0;orthogonalLoop=1;jettySize=auto;html=1;exitX=0.5;exitY=1;exitDx=0;exitDy=0;entryX=0.5;entryY=0;entryDx=0;entryDy=0;" parent="WIyWlLk6GJQsqaUBKTNV-1" source="arrxK9u_b5UNdcoeQI_R-12" target="arrxK9u_b5UNdcoeQI_R-1" edge="1">
          <mxGeometry relative="1" as="geometry" />
        </mxCell>
        <mxCell id="arrxK9u_b5UNdcoeQI_R-12" value="&lt;span&gt;Read Camera -&amp;gt; &lt;br&gt;3D Matrix of RGB values&amp;nbsp;&lt;/span&gt;" style="shape=parallelogram;perimeter=parallelogramPerimeter;whiteSpace=wrap;html=1;fixedSize=1;" parent="WIyWlLk6GJQsqaUBKTNV-1" vertex="1">
          <mxGeometry x="1283" y="217.97" width="131" height="57" as="geometry" />
        </mxCell>
        <mxCell id="arrxK9u_b5UNdcoeQI_R-88" style="edgeStyle=orthogonalEdgeStyle;rounded=0;orthogonalLoop=1;jettySize=auto;html=1;exitX=0.5;exitY=1;exitDx=0;exitDy=0;entryX=0.519;entryY=-0.001;entryDx=0;entryDy=0;entryPerimeter=0;" parent="WIyWlLk6GJQsqaUBKTNV-1" source="arrxK9u_b5UNdcoeQI_R-41" target="arrxK9u_b5UNdcoeQI_R-53" edge="1">
          <mxGeometry relative="1" as="geometry" />
        </mxCell>
        <mxCell id="arrxK9u_b5UNdcoeQI_R-41" value="True" style="rhombus;whiteSpace=wrap;html=1;shadow=0;fontFamily=Helvetica;fontSize=12;align=center;strokeWidth=1;spacing=6;spacingTop=-4;" parent="WIyWlLk6GJQsqaUBKTNV-1" vertex="1">
          <mxGeometry x="452" y="198" width="100" height="80" as="geometry" />
        </mxCell>
        <mxCell id="arrxK9u_b5UNdcoeQI_R-85" value="" style="edgeStyle=orthogonalEdgeStyle;rounded=0;orthogonalLoop=1;jettySize=auto;html=1;entryX=0.5;entryY=0;entryDx=0;entryDy=0;" parent="WIyWlLk6GJQsqaUBKTNV-1" source="arrxK9u_b5UNdcoeQI_R-42" target="arrxK9u_b5UNdcoeQI_R-41" edge="1">
          <mxGeometry relative="1" as="geometry" />
        </mxCell>
        <mxCell id="arrxK9u_b5UNdcoeQI_R-42" value="Start" style="ellipse;whiteSpace=wrap;html=1;" parent="WIyWlLk6GJQsqaUBKTNV-1" vertex="1">
          <mxGeometry x="467.25" y="122" width="70" height="54" as="geometry" />
        </mxCell>
        <mxCell id="arrxK9u_b5UNdcoeQI_R-89" style="edgeStyle=orthogonalEdgeStyle;rounded=0;orthogonalLoop=1;jettySize=auto;html=1;exitX=0.5;exitY=1;exitDx=0;exitDy=0;entryX=0.5;entryY=0;entryDx=0;entryDy=0;" parent="WIyWlLk6GJQsqaUBKTNV-1" source="arrxK9u_b5UNdcoeQI_R-53" target="2-CDazUtKi0lOGPMeV0E-5" edge="1">
          <mxGeometry relative="1" as="geometry">
            <mxPoint x="503.0000000000002" y="383.9999999999999" as="targetPoint" />
          </mxGeometry>
        </mxCell>
        <mxCell id="arrxK9u_b5UNdcoeQI_R-53" value="Dequeue 2D matrix&amp;nbsp;" style="shape=parallelogram;perimeter=parallelogramPerimeter;whiteSpace=wrap;html=1;fixedSize=1;" parent="WIyWlLk6GJQsqaUBKTNV-1" vertex="1">
          <mxGeometry x="434.5" y="294" width="131" height="57" as="geometry" />
        </mxCell>
        <mxCell id="2-CDazUtKi0lOGPMeV0E-2" value="" style="edgeStyle=orthogonalEdgeStyle;rounded=0;orthogonalLoop=1;jettySize=auto;html=1;exitX=0.5;exitY=1;exitDx=0;exitDy=0;" parent="WIyWlLk6GJQsqaUBKTNV-1" source="Kb7l_ePSBx4M9OJZE0mj-5" target="2-CDazUtKi0lOGPMeV0E-1" edge="1">
          <mxGeometry relative="1" as="geometry">
            <mxPoint x="1348.416666666667" y="521.97" as="sourcePoint" />
          </mxGeometry>
        </mxCell>
        <mxCell id="Kb7l_ePSBx4M9OJZE0mj-8" style="edgeStyle=orthogonalEdgeStyle;rounded=0;orthogonalLoop=1;jettySize=auto;html=1;" edge="1" parent="WIyWlLk6GJQsqaUBKTNV-1" source="2-CDazUtKi0lOGPMeV0E-1">
          <mxGeometry relative="1" as="geometry">
            <mxPoint x="1182" y="235.97" as="targetPoint" />
            <Array as="points">
              <mxPoint x="1512" y="384.97" />
              <mxPoint x="1122" y="384.97" />
            </Array>
          </mxGeometry>
        </mxCell>
        <mxCell id="2-CDazUtKi0lOGPMeV0E-1" value="Enqueue list of coordinates and 2D matrix" style="rounded=1;whiteSpace=wrap;html=1;fontSize=12;glass=0;strokeWidth=1;shadow=0;" parent="WIyWlLk6GJQsqaUBKTNV-1" vertex="1">
          <mxGeometry x="1452" y="309.97" width="120" height="40" as="geometry" />
        </mxCell>
        <mxCell id="2-CDazUtKi0lOGPMeV0E-36" value="" style="edgeStyle=orthogonalEdgeStyle;rounded=0;orthogonalLoop=1;jettySize=auto;html=1;" parent="WIyWlLk6GJQsqaUBKTNV-1" source="2-CDazUtKi0lOGPMeV0E-5" target="2-CDazUtKi0lOGPMeV0E-29" edge="1">
          <mxGeometry relative="1" as="geometry" />
        </mxCell>
        <mxCell id="2-CDazUtKi0lOGPMeV0E-70" style="edgeStyle=orthogonalEdgeStyle;rounded=0;orthogonalLoop=1;jettySize=auto;html=1;exitX=0;exitY=0.5;exitDx=0;exitDy=0;" parent="WIyWlLk6GJQsqaUBKTNV-1" source="2-CDazUtKi0lOGPMeV0E-5" edge="1">
          <mxGeometry relative="1" as="geometry">
            <mxPoint x="501" y="184" as="targetPoint" />
            <Array as="points">
              <mxPoint x="420" y="405" />
              <mxPoint x="420" y="184" />
            </Array>
          </mxGeometry>
        </mxCell>
        <mxCell id="2-CDazUtKi0lOGPMeV0E-71" value="Loop&lt;br&gt;done" style="edgeLabel;html=1;align=center;verticalAlign=middle;resizable=0;points=[];" parent="2-CDazUtKi0lOGPMeV0E-70" vertex="1" connectable="0">
          <mxGeometry x="-0.8781" y="-11" relative="1" as="geometry">
            <mxPoint x="-27" y="-16" as="offset" />
          </mxGeometry>
        </mxCell>
        <mxCell id="2-CDazUtKi0lOGPMeV0E-5" value="For each intersection" style="rounded=1;whiteSpace=wrap;html=1;fontSize=12;glass=0;strokeWidth=1;shadow=0;" parent="WIyWlLk6GJQsqaUBKTNV-1" vertex="1">
          <mxGeometry x="440" y="385" width="120" height="40" as="geometry" />
        </mxCell>
        <mxCell id="2-CDazUtKi0lOGPMeV0E-39" value="" style="edgeStyle=orthogonalEdgeStyle;rounded=0;orthogonalLoop=1;jettySize=auto;html=1;entryX=0.5;entryY=0;entryDx=0;entryDy=0;" parent="WIyWlLk6GJQsqaUBKTNV-1" source="2-CDazUtKi0lOGPMeV0E-6" target="2-CDazUtKi0lOGPMeV0E-7" edge="1">
          <mxGeometry relative="1" as="geometry" />
        </mxCell>
        <mxCell id="2-CDazUtKi0lOGPMeV0E-42" style="edgeStyle=orthogonalEdgeStyle;rounded=0;orthogonalLoop=1;jettySize=auto;html=1;entryX=0;entryY=0.5;entryDx=0;entryDy=0;" parent="WIyWlLk6GJQsqaUBKTNV-1" source="2-CDazUtKi0lOGPMeV0E-6" target="2-CDazUtKi0lOGPMeV0E-11" edge="1">
          <mxGeometry relative="1" as="geometry">
            <mxPoint x="501" y="722" as="targetPoint" />
            <Array as="points">
              <mxPoint x="405" y="532" />
              <mxPoint x="405" y="722" />
              <mxPoint x="611" y="722" />
              <mxPoint x="611" y="466" />
            </Array>
          </mxGeometry>
        </mxCell>
        <mxCell id="2-CDazUtKi0lOGPMeV0E-6" value="For each lane intersection" style="rounded=1;whiteSpace=wrap;html=1;fontSize=12;glass=0;strokeWidth=1;shadow=0;" parent="WIyWlLk6GJQsqaUBKTNV-1" vertex="1">
          <mxGeometry x="440" y="512" width="120" height="40" as="geometry" />
        </mxCell>
        <mxCell id="2-CDazUtKi0lOGPMeV0E-41" style="edgeStyle=orthogonalEdgeStyle;rounded=0;orthogonalLoop=1;jettySize=auto;html=1;exitX=0.5;exitY=1;exitDx=0;exitDy=0;entryX=0.5;entryY=0;entryDx=0;entryDy=0;" parent="WIyWlLk6GJQsqaUBKTNV-1" source="2-CDazUtKi0lOGPMeV0E-7" target="2-CDazUtKi0lOGPMeV0E-8" edge="1">
          <mxGeometry relative="1" as="geometry" />
        </mxCell>
        <mxCell id="2-CDazUtKi0lOGPMeV0E-7" value="Is entrance lane intersection and have people waiting?" style="rhombus;whiteSpace=wrap;html=1;shadow=0;fontFamily=Helvetica;fontSize=12;align=center;strokeWidth=1;spacing=6;spacingTop=-4;" parent="WIyWlLk6GJQsqaUBKTNV-1" vertex="1">
          <mxGeometry x="423.5" y="572" width="153" height="80" as="geometry" />
        </mxCell>
        <mxCell id="2-CDazUtKi0lOGPMeV0E-9" style="edgeStyle=orthogonalEdgeStyle;rounded=0;orthogonalLoop=1;jettySize=auto;html=1;entryX=1;entryY=0.5;entryDx=0;entryDy=0;exitX=1;exitY=0.5;exitDx=0;exitDy=0;" parent="WIyWlLk6GJQsqaUBKTNV-1" source="2-CDazUtKi0lOGPMeV0E-8" target="2-CDazUtKi0lOGPMeV0E-6" edge="1">
          <mxGeometry relative="1" as="geometry">
            <Array as="points">
              <mxPoint x="599" y="687" />
              <mxPoint x="599" y="532" />
            </Array>
          </mxGeometry>
        </mxCell>
        <mxCell id="2-CDazUtKi0lOGPMeV0E-8" value="Enqueue lane intersection with waiting people" style="rounded=1;whiteSpace=wrap;html=1;fontSize=12;glass=0;strokeWidth=1;shadow=0;" parent="WIyWlLk6GJQsqaUBKTNV-1" vertex="1">
          <mxGeometry x="440" y="667" width="120" height="40" as="geometry" />
        </mxCell>
        <mxCell id="2-CDazUtKi0lOGPMeV0E-46" style="edgeStyle=orthogonalEdgeStyle;rounded=0;orthogonalLoop=1;jettySize=auto;html=1;exitX=0.5;exitY=1;exitDx=0;exitDy=0;entryX=0.5;entryY=0;entryDx=0;entryDy=0;" parent="WIyWlLk6GJQsqaUBKTNV-1" source="2-CDazUtKi0lOGPMeV0E-11" target="2-CDazUtKi0lOGPMeV0E-27" edge="1">
          <mxGeometry relative="1" as="geometry" />
        </mxCell>
        <mxCell id="2-CDazUtKi0lOGPMeV0E-51" style="edgeStyle=orthogonalEdgeStyle;rounded=0;orthogonalLoop=1;jettySize=auto;html=1;exitX=1;exitY=0.5;exitDx=0;exitDy=0;" parent="WIyWlLk6GJQsqaUBKTNV-1" source="2-CDazUtKi0lOGPMeV0E-11" target="2-CDazUtKi0lOGPMeV0E-30" edge="1">
          <mxGeometry relative="1" as="geometry" />
        </mxCell>
        <mxCell id="2-CDazUtKi0lOGPMeV0E-11" value="Intersection contains person?" style="rhombus;whiteSpace=wrap;html=1;shadow=0;fontFamily=Helvetica;fontSize=12;align=center;strokeWidth=1;spacing=6;spacingTop=-4;" parent="WIyWlLk6GJQsqaUBKTNV-1" vertex="1">
          <mxGeometry x="639" y="426" width="153" height="80" as="geometry" />
        </mxCell>
        <mxCell id="2-CDazUtKi0lOGPMeV0E-26" value="" style="group" parent="WIyWlLk6GJQsqaUBKTNV-1" vertex="1" connectable="0">
          <mxGeometry x="-153" y="15" width="236" height="208" as="geometry" />
        </mxCell>
        <mxCell id="2-CDazUtKi0lOGPMeV0E-12" value="" style="rounded=0;whiteSpace=wrap;html=1;" parent="2-CDazUtKi0lOGPMeV0E-26" vertex="1">
          <mxGeometry y="72.5" width="219" height="60" as="geometry" />
        </mxCell>
        <mxCell id="2-CDazUtKi0lOGPMeV0E-13" value="" style="rounded=0;whiteSpace=wrap;html=1;rotation=-90;" parent="2-CDazUtKi0lOGPMeV0E-26" vertex="1">
          <mxGeometry x="5.5" y="74" width="208" height="60" as="geometry" />
        </mxCell>
        <mxCell id="2-CDazUtKi0lOGPMeV0E-14" value="Intersection" style="whiteSpace=wrap;html=1;aspect=fixed;fillColor=#dae8fc;strokeColor=#6c8ebf;" parent="2-CDazUtKi0lOGPMeV0E-26" vertex="1">
          <mxGeometry x="79" y="72.5" width="61" height="61" as="geometry" />
        </mxCell>
        <mxCell id="2-CDazUtKi0lOGPMeV0E-15" value="" style="endArrow=none;html=1;exitX=0.667;exitY=0.998;exitDx=0;exitDy=0;entryX=0.667;entryY=0.003;entryDx=0;entryDy=0;entryPerimeter=0;exitPerimeter=0;fillColor=#f8cecc;strokeColor=#b85450;" parent="2-CDazUtKi0lOGPMeV0E-26" source="2-CDazUtKi0lOGPMeV0E-12" target="2-CDazUtKi0lOGPMeV0E-12" edge="1">
          <mxGeometry width="50" height="50" relative="1" as="geometry">
            <mxPoint x="275" y="105.5" as="sourcePoint" />
            <mxPoint x="325" y="55.5" as="targetPoint" />
          </mxGeometry>
        </mxCell>
        <mxCell id="2-CDazUtKi0lOGPMeV0E-16" value="" style="endArrow=none;html=1;exitX=0.334;exitY=1.005;exitDx=0;exitDy=0;entryX=0.336;entryY=0.01;entryDx=0;entryDy=0;entryPerimeter=0;exitPerimeter=0;fillColor=#f8cecc;strokeColor=#b85450;" parent="2-CDazUtKi0lOGPMeV0E-26" source="2-CDazUtKi0lOGPMeV0E-12" target="2-CDazUtKi0lOGPMeV0E-12" edge="1">
          <mxGeometry width="50" height="50" relative="1" as="geometry">
            <mxPoint x="72.00400000000005" y="132.62" as="sourcePoint" />
            <mxPoint x="72.88000000000002" y="72.38" as="targetPoint" />
          </mxGeometry>
        </mxCell>
        <mxCell id="2-CDazUtKi0lOGPMeV0E-18" value="" style="endArrow=none;html=1;exitX=0.361;exitY=0.987;exitDx=0;exitDy=0;entryX=0.361;entryY=0.004;entryDx=0;entryDy=0;entryPerimeter=0;exitPerimeter=0;fillColor=#f8cecc;strokeColor=#b85450;" parent="2-CDazUtKi0lOGPMeV0E-26" edge="1">
          <mxGeometry width="50" height="50" relative="1" as="geometry">
            <mxPoint x="138.99" y="66.50099999999998" as="sourcePoint" />
            <mxPoint x="80.01000000000023" y="66.50099999999998" as="targetPoint" />
          </mxGeometry>
        </mxCell>
        <mxCell id="2-CDazUtKi0lOGPMeV0E-20" value="Lane intersection" style="text;html=1;align=center;verticalAlign=middle;resizable=0;points=[];autosize=1;" parent="2-CDazUtKi0lOGPMeV0E-26" vertex="1">
          <mxGeometry x="134" y="36.5" width="102" height="19" as="geometry" />
        </mxCell>
        <mxCell id="2-CDazUtKi0lOGPMeV0E-21" value="" style="rounded=0;whiteSpace=wrap;html=1;fillColor=#e1d5e7;strokeColor=#9673a6;" parent="2-CDazUtKi0lOGPMeV0E-26" vertex="1">
          <mxGeometry x="80" y="0.5" width="59" height="72" as="geometry" />
        </mxCell>
        <mxCell id="2-CDazUtKi0lOGPMeV0E-19" value="" style="endArrow=classic;html=1;entryX=0.75;entryY=1;entryDx=0;entryDy=0;" parent="2-CDazUtKi0lOGPMeV0E-26" target="2-CDazUtKi0lOGPMeV0E-21" edge="1">
          <mxGeometry width="50" height="50" relative="1" as="geometry">
            <mxPoint x="165" y="49.5" as="sourcePoint" />
            <mxPoint x="124" y="65.5" as="targetPoint" />
          </mxGeometry>
        </mxCell>
        <mxCell id="2-CDazUtKi0lOGPMeV0E-22" value="" style="rounded=0;whiteSpace=wrap;html=1;fillColor=#e1d5e7;strokeColor=#9673a6;" parent="2-CDazUtKi0lOGPMeV0E-26" vertex="1">
          <mxGeometry x="80" y="133.5" width="59" height="73" as="geometry" />
        </mxCell>
        <mxCell id="2-CDazUtKi0lOGPMeV0E-24" value="Lane" style="rounded=0;whiteSpace=wrap;html=1;fillColor=#e1d5e7;strokeColor=#9673a6;" parent="2-CDazUtKi0lOGPMeV0E-26" vertex="1">
          <mxGeometry x="1" y="73.5" width="78" height="58" as="geometry" />
        </mxCell>
        <mxCell id="2-CDazUtKi0lOGPMeV0E-25" value="" style="rounded=0;whiteSpace=wrap;html=1;fillColor=#e1d5e7;strokeColor=#9673a6;" parent="2-CDazUtKi0lOGPMeV0E-26" vertex="1">
          <mxGeometry x="141" y="73.5" width="78" height="58" as="geometry" />
        </mxCell>
        <mxCell id="2-CDazUtKi0lOGPMeV0E-47" style="edgeStyle=orthogonalEdgeStyle;rounded=0;orthogonalLoop=1;jettySize=auto;html=1;exitX=0.5;exitY=1;exitDx=0;exitDy=0;entryX=0.5;entryY=0;entryDx=0;entryDy=0;" parent="WIyWlLk6GJQsqaUBKTNV-1" source="2-CDazUtKi0lOGPMeV0E-27" target="2-CDazUtKi0lOGPMeV0E-28" edge="1">
          <mxGeometry relative="1" as="geometry" />
        </mxCell>
        <mxCell id="2-CDazUtKi0lOGPMeV0E-27" value="Set LEDs on extrance lane intersections states on" style="rounded=1;whiteSpace=wrap;html=1;fontSize=12;glass=0;strokeWidth=1;shadow=0;" parent="WIyWlLk6GJQsqaUBKTNV-1" vertex="1">
          <mxGeometry x="655.5" y="521" width="120" height="40" as="geometry" />
        </mxCell>
        <mxCell id="2-CDazUtKi0lOGPMeV0E-64" style="edgeStyle=orthogonalEdgeStyle;rounded=0;orthogonalLoop=1;jettySize=auto;html=1;entryX=0.5;entryY=0;entryDx=0;entryDy=0;" parent="WIyWlLk6GJQsqaUBKTNV-1" source="2-CDazUtKi0lOGPMeV0E-28" target="2-CDazUtKi0lOGPMeV0E-63" edge="1">
          <mxGeometry relative="1" as="geometry" />
        </mxCell>
        <mxCell id="2-CDazUtKi0lOGPMeV0E-28" value="Set LEDs on exit lane intersections where there are people waiting states on" style="rounded=1;whiteSpace=wrap;html=1;fontSize=12;glass=0;strokeWidth=1;shadow=0;" parent="WIyWlLk6GJQsqaUBKTNV-1" vertex="1">
          <mxGeometry x="656" y="577" width="120" height="60" as="geometry" />
        </mxCell>
        <mxCell id="2-CDazUtKi0lOGPMeV0E-38" value="" style="edgeStyle=orthogonalEdgeStyle;rounded=0;orthogonalLoop=1;jettySize=auto;html=1;entryX=0.5;entryY=0;entryDx=0;entryDy=0;" parent="WIyWlLk6GJQsqaUBKTNV-1" source="2-CDazUtKi0lOGPMeV0E-29" target="2-CDazUtKi0lOGPMeV0E-6" edge="1">
          <mxGeometry relative="1" as="geometry" />
        </mxCell>
        <mxCell id="2-CDazUtKi0lOGPMeV0E-29" value="Set all LED states as off" style="rounded=1;whiteSpace=wrap;html=1;fontSize=12;glass=0;strokeWidth=1;shadow=0;" parent="WIyWlLk6GJQsqaUBKTNV-1" vertex="1">
          <mxGeometry x="440" y="449" width="120" height="40" as="geometry" />
        </mxCell>
        <mxCell id="2-CDazUtKi0lOGPMeV0E-53" style="edgeStyle=orthogonalEdgeStyle;rounded=0;orthogonalLoop=1;jettySize=auto;html=1;exitX=0.5;exitY=1;exitDx=0;exitDy=0;entryX=0.5;entryY=0;entryDx=0;entryDy=0;" parent="WIyWlLk6GJQsqaUBKTNV-1" source="2-CDazUtKi0lOGPMeV0E-30" target="2-CDazUtKi0lOGPMeV0E-31" edge="1">
          <mxGeometry relative="1" as="geometry" />
        </mxCell>
        <mxCell id="2-CDazUtKi0lOGPMeV0E-30" value="Turn on LEDs on extrance lane intersections" style="rounded=1;whiteSpace=wrap;html=1;fontSize=12;glass=0;strokeWidth=1;shadow=0;" parent="WIyWlLk6GJQsqaUBKTNV-1" vertex="1">
          <mxGeometry x="798.5" y="521" width="120" height="40" as="geometry" />
        </mxCell>
        <mxCell id="2-CDazUtKi0lOGPMeV0E-54" style="edgeStyle=orthogonalEdgeStyle;rounded=0;orthogonalLoop=1;jettySize=auto;html=1;exitX=0.5;exitY=1;exitDx=0;exitDy=0;entryX=0.5;entryY=0;entryDx=0;entryDy=0;" parent="WIyWlLk6GJQsqaUBKTNV-1" source="2-CDazUtKi0lOGPMeV0E-31" target="2-CDazUtKi0lOGPMeV0E-32" edge="1">
          <mxGeometry relative="1" as="geometry" />
        </mxCell>
        <mxCell id="2-CDazUtKi0lOGPMeV0E-58" style="edgeStyle=orthogonalEdgeStyle;rounded=0;orthogonalLoop=1;jettySize=auto;html=1;exitX=1;exitY=0.5;exitDx=0;exitDy=0;entryX=0.5;entryY=0;entryDx=0;entryDy=0;" parent="WIyWlLk6GJQsqaUBKTNV-1" source="2-CDazUtKi0lOGPMeV0E-31" target="2-CDazUtKi0lOGPMeV0E-33" edge="1">
          <mxGeometry relative="1" as="geometry" />
        </mxCell>
        <mxCell id="2-CDazUtKi0lOGPMeV0E-59" value="No" style="edgeLabel;html=1;align=center;verticalAlign=middle;resizable=0;points=[];" parent="2-CDazUtKi0lOGPMeV0E-58" vertex="1" connectable="0">
          <mxGeometry x="-0.6693" y="2" relative="1" as="geometry">
            <mxPoint y="-10" as="offset" />
          </mxGeometry>
        </mxCell>
        <mxCell id="2-CDazUtKi0lOGPMeV0E-31" value="Intersection queue empty?" style="rhombus;whiteSpace=wrap;html=1;shadow=0;fontFamily=Helvetica;fontSize=12;align=center;strokeWidth=1;spacing=6;spacingTop=-4;" parent="WIyWlLk6GJQsqaUBKTNV-1" vertex="1">
          <mxGeometry x="781.5" y="574" width="153" height="80" as="geometry" />
        </mxCell>
        <mxCell id="2-CDazUtKi0lOGPMeV0E-32" value="Set LEDs on exit lane intersections off" style="rounded=1;whiteSpace=wrap;html=1;fontSize=12;glass=0;strokeWidth=1;shadow=0;" parent="WIyWlLk6GJQsqaUBKTNV-1" vertex="1">
          <mxGeometry x="797.5" y="670" width="120" height="40" as="geometry" />
        </mxCell>
        <mxCell id="2-CDazUtKi0lOGPMeV0E-60" style="edgeStyle=orthogonalEdgeStyle;rounded=0;orthogonalLoop=1;jettySize=auto;html=1;exitX=0.5;exitY=1;exitDx=0;exitDy=0;entryX=0.5;entryY=0;entryDx=0;entryDy=0;" parent="WIyWlLk6GJQsqaUBKTNV-1" source="2-CDazUtKi0lOGPMeV0E-33" target="2-CDazUtKi0lOGPMeV0E-34" edge="1">
          <mxGeometry relative="1" as="geometry" />
        </mxCell>
        <mxCell id="2-CDazUtKi0lOGPMeV0E-33" value="Dequeue lane intersection with waiting people" style="rounded=1;whiteSpace=wrap;html=1;fontSize=12;glass=0;strokeWidth=1;shadow=0;" parent="WIyWlLk6GJQsqaUBKTNV-1" vertex="1">
          <mxGeometry x="925.5" y="670" width="120" height="40" as="geometry" />
        </mxCell>
        <mxCell id="2-CDazUtKi0lOGPMeV0E-61" style="edgeStyle=orthogonalEdgeStyle;rounded=0;orthogonalLoop=1;jettySize=auto;html=1;exitX=0.5;exitY=1;exitDx=0;exitDy=0;entryX=0.5;entryY=0;entryDx=0;entryDy=0;" parent="WIyWlLk6GJQsqaUBKTNV-1" source="2-CDazUtKi0lOGPMeV0E-34" target="2-CDazUtKi0lOGPMeV0E-35" edge="1">
          <mxGeometry relative="1" as="geometry" />
        </mxCell>
        <mxCell id="2-CDazUtKi0lOGPMeV0E-34" value="Turn LED at this entrance lane intersection state off" style="rounded=1;whiteSpace=wrap;html=1;fontSize=12;glass=0;strokeWidth=1;shadow=0;" parent="WIyWlLk6GJQsqaUBKTNV-1" vertex="1">
          <mxGeometry x="925.5" y="724" width="120" height="40" as="geometry" />
        </mxCell>
        <mxCell id="2-CDazUtKi0lOGPMeV0E-65" style="edgeStyle=orthogonalEdgeStyle;rounded=0;orthogonalLoop=1;jettySize=auto;html=1;exitX=0;exitY=0.5;exitDx=0;exitDy=0;entryX=1;entryY=0.5;entryDx=0;entryDy=0;" parent="WIyWlLk6GJQsqaUBKTNV-1" source="2-CDazUtKi0lOGPMeV0E-35" target="2-CDazUtKi0lOGPMeV0E-63" edge="1">
          <mxGeometry relative="1" as="geometry" />
        </mxCell>
        <mxCell id="2-CDazUtKi0lOGPMeV0E-35" value="Set LEDs at all other entrance lane intersections states on" style="rounded=1;whiteSpace=wrap;html=1;fontSize=12;glass=0;strokeWidth=1;shadow=0;" parent="WIyWlLk6GJQsqaUBKTNV-1" vertex="1">
          <mxGeometry x="923.5" y="777.5" width="120" height="65" as="geometry" />
        </mxCell>
        <mxCell id="2-CDazUtKi0lOGPMeV0E-43" value="Loop&amp;nbsp;" style="text;html=1;align=center;verticalAlign=middle;resizable=0;points=[];autosize=1;" parent="WIyWlLk6GJQsqaUBKTNV-1" vertex="1">
          <mxGeometry x="567" y="513" width="41" height="18" as="geometry" />
        </mxCell>
        <mxCell id="2-CDazUtKi0lOGPMeV0E-44" value="Loop &lt;br&gt;done" style="text;html=1;align=center;verticalAlign=middle;resizable=0;points=[];autosize=1;" parent="WIyWlLk6GJQsqaUBKTNV-1" vertex="1">
          <mxGeometry x="399" y="496" width="38" height="32" as="geometry" />
        </mxCell>
        <mxCell id="2-CDazUtKi0lOGPMeV0E-49" value="Yes" style="text;html=1;strokeColor=none;fillColor=none;align=center;verticalAlign=middle;whiteSpace=wrap;rounded=0;" parent="WIyWlLk6GJQsqaUBKTNV-1" vertex="1">
          <mxGeometry x="710.75" y="500" width="40" height="20" as="geometry" />
        </mxCell>
        <mxCell id="2-CDazUtKi0lOGPMeV0E-50" value="Yes" style="text;html=1;strokeColor=none;fillColor=none;align=center;verticalAlign=middle;whiteSpace=wrap;rounded=0;" parent="WIyWlLk6GJQsqaUBKTNV-1" vertex="1">
          <mxGeometry x="500" y="646" width="40" height="20" as="geometry" />
        </mxCell>
        <mxCell id="2-CDazUtKi0lOGPMeV0E-52" value="No&lt;br&gt;" style="text;html=1;align=center;verticalAlign=middle;resizable=0;points=[];autosize=1;" parent="WIyWlLk6GJQsqaUBKTNV-1" vertex="1">
          <mxGeometry x="797.5" y="448" width="26" height="18" as="geometry" />
        </mxCell>
        <mxCell id="2-CDazUtKi0lOGPMeV0E-56" value="Yes" style="text;html=1;strokeColor=none;fillColor=none;align=center;verticalAlign=middle;whiteSpace=wrap;rounded=0;" parent="WIyWlLk6GJQsqaUBKTNV-1" vertex="1">
          <mxGeometry x="852.5" y="651" width="40" height="20" as="geometry" />
        </mxCell>
        <mxCell id="2-CDazUtKi0lOGPMeV0E-66" style="edgeStyle=orthogonalEdgeStyle;rounded=0;orthogonalLoop=1;jettySize=auto;html=1;entryX=1;entryY=0.5;entryDx=0;entryDy=0;exitX=0.5;exitY=1;exitDx=0;exitDy=0;" parent="WIyWlLk6GJQsqaUBKTNV-1" source="2-CDazUtKi0lOGPMeV0E-63" target="2-CDazUtKi0lOGPMeV0E-5" edge="1">
          <mxGeometry relative="1" as="geometry">
            <Array as="points">
              <mxPoint x="713" y="830" />
              <mxPoint x="713" y="857" />
              <mxPoint x="1086" y="857" />
              <mxPoint x="1086" y="738" />
              <mxPoint x="1085" y="738" />
              <mxPoint x="1085" y="405" />
            </Array>
          </mxGeometry>
        </mxCell>
        <mxCell id="2-CDazUtKi0lOGPMeV0E-68" value="Loop" style="edgeLabel;html=1;align=center;verticalAlign=middle;resizable=0;points=[];" parent="2-CDazUtKi0lOGPMeV0E-66" vertex="1" connectable="0">
          <mxGeometry x="0.9666" y="-5" relative="1" as="geometry">
            <mxPoint x="0.92" y="-6" as="offset" />
          </mxGeometry>
        </mxCell>
        <mxCell id="2-CDazUtKi0lOGPMeV0E-63" value="Turn on/off LEDs based on set LED states" style="rounded=1;whiteSpace=wrap;html=1;fontSize=12;glass=0;strokeWidth=1;shadow=0;" parent="WIyWlLk6GJQsqaUBKTNV-1" vertex="1">
          <mxGeometry x="656" y="790" width="120" height="40" as="geometry" />
        </mxCell>
        <mxCell id="2-CDazUtKi0lOGPMeV0E-73" value="" style="group" parent="WIyWlLk6GJQsqaUBKTNV-1" vertex="1" connectable="0">
          <mxGeometry x="103" y="31" width="198" height="438" as="geometry" />
        </mxCell>
        <mxCell id="2-CDazUtKi0lOGPMeV0E-74" value="" style="rounded=0;whiteSpace=wrap;html=1;" parent="2-CDazUtKi0lOGPMeV0E-73" vertex="1">
          <mxGeometry width="197.99999999999997" height="438" as="geometry" />
        </mxCell>
        <mxCell id="2-CDazUtKi0lOGPMeV0E-75" value="True" style="rhombus;whiteSpace=wrap;html=1;shadow=0;fontFamily=Helvetica;fontSize=12;align=center;strokeWidth=1;spacing=6;spacingTop=-4;" parent="2-CDazUtKi0lOGPMeV0E-73" vertex="1">
          <mxGeometry x="35.28191489361702" y="122" width="105.31914893617021" height="80" as="geometry" />
        </mxCell>
        <mxCell id="2-CDazUtKi0lOGPMeV0E-76" style="edgeStyle=orthogonalEdgeStyle;rounded=0;orthogonalLoop=1;jettySize=auto;html=1;exitX=1;exitY=0.5;exitDx=0;exitDy=0;" parent="2-CDazUtKi0lOGPMeV0E-73" source="2-CDazUtKi0lOGPMeV0E-84" edge="1">
          <mxGeometry relative="1" as="geometry">
            <mxPoint x="87.41489361702126" y="107" as="targetPoint" />
            <Array as="points">
              <mxPoint x="181.14893617021275" y="393" />
              <mxPoint x="181.14893617021275" y="107" />
            </Array>
            <mxPoint x="154.8191489361702" y="447" as="sourcePoint" />
          </mxGeometry>
        </mxCell>
        <mxCell id="2-CDazUtKi0lOGPMeV0E-77" style="edgeStyle=orthogonalEdgeStyle;rounded=0;orthogonalLoop=1;jettySize=auto;html=1;exitX=0.5;exitY=1;exitDx=0;exitDy=0;entryX=0.5;entryY=0;entryDx=0;entryDy=0;" parent="2-CDazUtKi0lOGPMeV0E-73" source="2-CDazUtKi0lOGPMeV0E-78" target="2-CDazUtKi0lOGPMeV0E-75" edge="1">
          <mxGeometry relative="1" as="geometry" />
        </mxCell>
        <mxCell id="2-CDazUtKi0lOGPMeV0E-78" value="Start" style="ellipse;whiteSpace=wrap;html=1;" parent="2-CDazUtKi0lOGPMeV0E-73" vertex="1">
          <mxGeometry x="51.07978723404255" y="48" width="73.72340425531914" height="54" as="geometry" />
        </mxCell>
        <mxCell id="2-CDazUtKi0lOGPMeV0E-79" style="edgeStyle=orthogonalEdgeStyle;rounded=0;orthogonalLoop=1;jettySize=auto;html=1;exitX=0.5;exitY=1;exitDx=0;exitDy=0;entryX=0.5;entryY=0;entryDx=0;entryDy=0;" parent="2-CDazUtKi0lOGPMeV0E-73" source="2-CDazUtKi0lOGPMeV0E-80" edge="1">
          <mxGeometry relative="1" as="geometry">
            <mxPoint x="87.94148936170212" y="298" as="targetPoint" />
          </mxGeometry>
        </mxCell>
        <mxCell id="2-CDazUtKi0lOGPMeV0E-80" value="Read protocol" style="shape=parallelogram;perimeter=parallelogramPerimeter;whiteSpace=wrap;html=1;fixedSize=1;" parent="2-CDazUtKi0lOGPMeV0E-73" vertex="1">
          <mxGeometry x="18.957446808510635" y="222" width="137.96808510638297" height="57" as="geometry" />
        </mxCell>
        <mxCell id="2-CDazUtKi0lOGPMeV0E-81" style="edgeStyle=orthogonalEdgeStyle;rounded=0;orthogonalLoop=1;jettySize=auto;html=1;exitX=0.5;exitY=1;exitDx=0;exitDy=0;entryX=0.5;entryY=0;entryDx=0;entryDy=0;" parent="2-CDazUtKi0lOGPMeV0E-73" source="2-CDazUtKi0lOGPMeV0E-75" target="2-CDazUtKi0lOGPMeV0E-80" edge="1">
          <mxGeometry relative="1" as="geometry" />
        </mxCell>
        <mxCell id="2-CDazUtKi0lOGPMeV0E-82" value="Local Controller" style="text;html=1;strokeColor=none;fillColor=none;align=center;verticalAlign=middle;whiteSpace=wrap;rounded=0;" parent="2-CDazUtKi0lOGPMeV0E-73" vertex="1">
          <mxGeometry x="39.494680851063826" width="94.78723404255318" height="39" as="geometry" />
        </mxCell>
        <mxCell id="2-CDazUtKi0lOGPMeV0E-83" value="Obtain LED location and color" style="shape=parallelogram;perimeter=parallelogramPerimeter;whiteSpace=wrap;html=1;fixedSize=1;" parent="2-CDazUtKi0lOGPMeV0E-73" vertex="1">
          <mxGeometry x="14.744680851063828" y="298" width="137.96808510638297" height="57" as="geometry" />
        </mxCell>
        <mxCell id="2-CDazUtKi0lOGPMeV0E-84" value="Power LED" style="rounded=1;whiteSpace=wrap;html=1;fontSize=12;glass=0;strokeWidth=1;shadow=0;" parent="2-CDazUtKi0lOGPMeV0E-73" vertex="1">
          <mxGeometry x="23.170212765957444" y="374" width="126.38297872340425" height="40" as="geometry" />
        </mxCell>
        <mxCell id="2-CDazUtKi0lOGPMeV0E-85" style="edgeStyle=orthogonalEdgeStyle;rounded=0;orthogonalLoop=1;jettySize=auto;html=1;exitX=0.5;exitY=1;exitDx=0;exitDy=0;entryX=0.5;entryY=0;entryDx=0;entryDy=0;" parent="2-CDazUtKi0lOGPMeV0E-73" source="2-CDazUtKi0lOGPMeV0E-83" target="2-CDazUtKi0lOGPMeV0E-84" edge="1">
          <mxGeometry relative="1" as="geometry">
            <mxPoint x="87.94148936170212" y="338" as="sourcePoint" />
            <mxPoint x="87.94148936170212" y="410" as="targetPoint" />
          </mxGeometry>
        </mxCell>
        <mxCell id="2-CDazUtKi0lOGPMeV0E-87" value="Main Controller Process" style="rounded=0;whiteSpace=wrap;html=1;" parent="WIyWlLk6GJQsqaUBKTNV-1" vertex="1">
          <mxGeometry x="436" y="54" width="120" height="60" as="geometry" />
        </mxCell>
        <mxCell id="2-CDazUtKi0lOGPMeV0E-88" value="Camera Data Process" style="rounded=0;whiteSpace=wrap;html=1;" parent="WIyWlLk6GJQsqaUBKTNV-1" vertex="1">
          <mxGeometry x="1219" y="61" width="120" height="60" as="geometry" />
        </mxCell>
        <mxCell id="2-CDazUtKi0lOGPMeV0E-89" value="Central Controller" style="text;html=1;strokeColor=none;fillColor=none;align=center;verticalAlign=middle;whiteSpace=wrap;rounded=0;" parent="WIyWlLk6GJQsqaUBKTNV-1" vertex="1">
          <mxGeometry x="608" y="28" width="40" height="20" as="geometry" />
        </mxCell>
        <mxCell id="2-CDazUtKi0lOGPMeV0E-90" value="Simulator GUI Process" style="rounded=0;whiteSpace=wrap;html=1;" parent="WIyWlLk6GJQsqaUBKTNV-1" vertex="1">
          <mxGeometry x="268.94" y="1057" width="120" height="60" as="geometry" />
        </mxCell>
        <mxCell id="2-CDazUtKi0lOGPMeV0E-112" style="edgeStyle=orthogonalEdgeStyle;rounded=0;orthogonalLoop=1;jettySize=auto;html=1;exitX=0.5;exitY=1;exitDx=0;exitDy=0;entryX=0.5;entryY=0;entryDx=0;entryDy=0;" parent="WIyWlLk6GJQsqaUBKTNV-1" source="2-CDazUtKi0lOGPMeV0E-91" target="2-CDazUtKi0lOGPMeV0E-92" edge="1">
          <mxGeometry relative="1" as="geometry" />
        </mxCell>
        <mxCell id="2-CDazUtKi0lOGPMeV0E-91" value="Start" style="ellipse;whiteSpace=wrap;html=1;" parent="WIyWlLk6GJQsqaUBKTNV-1" vertex="1">
          <mxGeometry x="293.94" y="1193" width="70" height="54" as="geometry" />
        </mxCell>
        <mxCell id="2-CDazUtKi0lOGPMeV0E-114" style="edgeStyle=orthogonalEdgeStyle;rounded=0;orthogonalLoop=1;jettySize=auto;html=1;exitX=0.5;exitY=1;exitDx=0;exitDy=0;entryX=0.461;entryY=0.027;entryDx=0;entryDy=0;entryPerimeter=0;" parent="WIyWlLk6GJQsqaUBKTNV-1" source="2-CDazUtKi0lOGPMeV0E-92" target="2-CDazUtKi0lOGPMeV0E-93" edge="1">
          <mxGeometry relative="1" as="geometry" />
        </mxCell>
        <mxCell id="2-CDazUtKi0lOGPMeV0E-92" value="True" style="rhombus;whiteSpace=wrap;html=1;shadow=0;fontFamily=Helvetica;fontSize=12;align=center;strokeWidth=1;spacing=6;spacingTop=-4;" parent="WIyWlLk6GJQsqaUBKTNV-1" vertex="1">
          <mxGeometry x="278.94" y="1261" width="100" height="80" as="geometry" />
        </mxCell>
        <mxCell id="2-CDazUtKi0lOGPMeV0E-116" style="edgeStyle=orthogonalEdgeStyle;rounded=0;orthogonalLoop=1;jettySize=auto;html=1;exitX=0.5;exitY=1;exitDx=0;exitDy=0;entryX=0.5;entryY=0;entryDx=0;entryDy=0;" parent="WIyWlLk6GJQsqaUBKTNV-1" source="2-CDazUtKi0lOGPMeV0E-93" target="2-CDazUtKi0lOGPMeV0E-94" edge="1">
          <mxGeometry relative="1" as="geometry" />
        </mxCell>
        <mxCell id="2-CDazUtKi0lOGPMeV0E-93" value="Enqueue people coordinates" style="rounded=1;whiteSpace=wrap;html=1;fontSize=12;glass=0;strokeWidth=1;shadow=0;" parent="WIyWlLk6GJQsqaUBKTNV-1" vertex="1">
          <mxGeometry x="273.94" y="1353" width="120" height="40" as="geometry" />
        </mxCell>
        <mxCell id="2-CDazUtKi0lOGPMeV0E-117" style="edgeStyle=orthogonalEdgeStyle;rounded=0;orthogonalLoop=1;jettySize=auto;html=1;exitX=0.5;exitY=1;exitDx=0;exitDy=0;entryX=0.5;entryY=0;entryDx=0;entryDy=0;" parent="WIyWlLk6GJQsqaUBKTNV-1" source="2-CDazUtKi0lOGPMeV0E-94" target="2-CDazUtKi0lOGPMeV0E-95" edge="1">
          <mxGeometry relative="1" as="geometry" />
        </mxCell>
        <mxCell id="2-CDazUtKi0lOGPMeV0E-94" value="Dequeue LED on/off states" style="rounded=1;whiteSpace=wrap;html=1;fontSize=12;glass=0;strokeWidth=1;shadow=0;" parent="WIyWlLk6GJQsqaUBKTNV-1" vertex="1">
          <mxGeometry x="270.94" y="1404" width="120" height="33" as="geometry" />
        </mxCell>
        <mxCell id="2-CDazUtKi0lOGPMeV0E-118" style="edgeStyle=orthogonalEdgeStyle;rounded=0;orthogonalLoop=1;jettySize=auto;html=1;exitX=0.5;exitY=1;exitDx=0;exitDy=0;entryX=0.5;entryY=0;entryDx=0;entryDy=0;" parent="WIyWlLk6GJQsqaUBKTNV-1" source="2-CDazUtKi0lOGPMeV0E-95" target="2-CDazUtKi0lOGPMeV0E-105" edge="1">
          <mxGeometry relative="1" as="geometry" />
        </mxCell>
        <mxCell id="2-CDazUtKi0lOGPMeV0E-95" value="Draw grid, lane, people, and LED" style="rounded=1;whiteSpace=wrap;html=1;fontSize=12;glass=0;strokeWidth=1;shadow=0;" parent="WIyWlLk6GJQsqaUBKTNV-1" vertex="1">
          <mxGeometry x="270.94" y="1449" width="120" height="40" as="geometry" />
        </mxCell>
        <mxCell id="2-CDazUtKi0lOGPMeV0E-119" style="edgeStyle=orthogonalEdgeStyle;rounded=0;orthogonalLoop=1;jettySize=auto;html=1;exitX=0.5;exitY=1;exitDx=0;exitDy=0;entryX=0.5;entryY=0;entryDx=0;entryDy=0;" parent="WIyWlLk6GJQsqaUBKTNV-1" source="2-CDazUtKi0lOGPMeV0E-105" target="2-CDazUtKi0lOGPMeV0E-108" edge="1">
          <mxGeometry relative="1" as="geometry" />
        </mxCell>
        <mxCell id="2-CDazUtKi0lOGPMeV0E-123" style="edgeStyle=orthogonalEdgeStyle;rounded=0;orthogonalLoop=1;jettySize=auto;html=1;exitX=0;exitY=0.5;exitDx=0;exitDy=0;entryX=0.5;entryY=0;entryDx=0;entryDy=0;" parent="WIyWlLk6GJQsqaUBKTNV-1" source="2-CDazUtKi0lOGPMeV0E-105" target="2-CDazUtKi0lOGPMeV0E-111" edge="1">
          <mxGeometry relative="1" as="geometry">
            <Array as="points">
              <mxPoint x="448" y="1228" />
              <mxPoint x="448" y="1419" />
              <mxPoint x="514" y="1419" />
            </Array>
          </mxGeometry>
        </mxCell>
        <mxCell id="2-CDazUtKi0lOGPMeV0E-124" value="Loop&lt;br&gt;done" style="edgeLabel;html=1;align=center;verticalAlign=middle;resizable=0;points=[];" parent="2-CDazUtKi0lOGPMeV0E-123" vertex="1" connectable="0">
          <mxGeometry x="-0.9331" y="-1" relative="1" as="geometry">
            <mxPoint x="-7" y="-15.99" as="offset" />
          </mxGeometry>
        </mxCell>
        <mxCell id="2-CDazUtKi0lOGPMeV0E-105" value="For each person" style="rounded=1;whiteSpace=wrap;html=1;fontSize=12;glass=0;strokeWidth=1;shadow=0;" parent="WIyWlLk6GJQsqaUBKTNV-1" vertex="1">
          <mxGeometry x="457.01" y="1208" width="120" height="40" as="geometry" />
        </mxCell>
        <mxCell id="2-CDazUtKi0lOGPMeV0E-120" style="edgeStyle=orthogonalEdgeStyle;rounded=0;orthogonalLoop=1;jettySize=auto;html=1;exitX=0.5;exitY=1;exitDx=0;exitDy=0;entryX=0.5;entryY=0;entryDx=0;entryDy=0;" parent="WIyWlLk6GJQsqaUBKTNV-1" source="2-CDazUtKi0lOGPMeV0E-108" target="2-CDazUtKi0lOGPMeV0E-110" edge="1">
          <mxGeometry relative="1" as="geometry" />
        </mxCell>
        <mxCell id="2-CDazUtKi0lOGPMeV0E-108" value="Calculate next coord" style="rounded=1;whiteSpace=wrap;html=1;fontSize=12;glass=0;strokeWidth=1;shadow=0;" parent="WIyWlLk6GJQsqaUBKTNV-1" vertex="1">
          <mxGeometry x="457.01" y="1262" width="120" height="40" as="geometry" />
        </mxCell>
        <mxCell id="2-CDazUtKi0lOGPMeV0E-121" style="edgeStyle=orthogonalEdgeStyle;rounded=0;orthogonalLoop=1;jettySize=auto;html=1;entryX=1;entryY=0.45;entryDx=0;entryDy=0;entryPerimeter=0;" parent="WIyWlLk6GJQsqaUBKTNV-1" source="2-CDazUtKi0lOGPMeV0E-110" target="2-CDazUtKi0lOGPMeV0E-105" edge="1">
          <mxGeometry relative="1" as="geometry">
            <Array as="points">
              <mxPoint x="597.01" y="1361.5" />
              <mxPoint x="597.01" y="1226" />
            </Array>
          </mxGeometry>
        </mxCell>
        <mxCell id="2-CDazUtKi0lOGPMeV0E-110" value="If next coord at destination, remove person; if next coord is not at lane intersection with LED on, advance" style="rounded=1;whiteSpace=wrap;html=1;fontSize=12;glass=0;strokeWidth=1;shadow=0;" parent="WIyWlLk6GJQsqaUBKTNV-1" vertex="1">
          <mxGeometry x="457.01" y="1314" width="120" height="95" as="geometry" />
        </mxCell>
        <mxCell id="Kb7l_ePSBx4M9OJZE0mj-9" style="edgeStyle=orthogonalEdgeStyle;rounded=0;orthogonalLoop=1;jettySize=auto;html=1;" edge="1" parent="WIyWlLk6GJQsqaUBKTNV-1" source="2-CDazUtKi0lOGPMeV0E-111">
          <mxGeometry relative="1" as="geometry">
            <mxPoint x="329" y="1254" as="targetPoint" />
            <Array as="points">
              <mxPoint x="514" y="1549" />
              <mxPoint x="249" y="1549" />
            </Array>
          </mxGeometry>
        </mxCell>
        <mxCell id="2-CDazUtKi0lOGPMeV0E-111" value="Generate new person with random entrance and destination&amp;nbsp;" style="rounded=1;whiteSpace=wrap;html=1;fontSize=12;glass=0;strokeWidth=1;shadow=0;" parent="WIyWlLk6GJQsqaUBKTNV-1" vertex="1">
          <mxGeometry x="454" y="1437" width="120" height="60" as="geometry" />
        </mxCell>
        <mxCell id="2-CDazUtKi0lOGPMeV0E-122" value="Loop&lt;br&gt;" style="text;html=1;align=center;verticalAlign=middle;resizable=0;points=[];autosize=1;" parent="WIyWlLk6GJQsqaUBKTNV-1" vertex="1">
          <mxGeometry x="578.01" y="1206" width="38" height="18" as="geometry" />
        </mxCell>
        <mxCell id="2-CDazUtKi0lOGPMeV0E-146" value="Coord" style="swimlane;fontStyle=0;childLayout=stackLayout;horizontal=1;startSize=26;fillColor=none;horizontalStack=0;resizeParent=1;resizeParentMax=0;resizeLast=0;collapsible=1;marginBottom=0;" parent="WIyWlLk6GJQsqaUBKTNV-1" vertex="1">
          <mxGeometry x="-829" y="158" width="140" height="78" as="geometry" />
        </mxCell>
        <mxCell id="2-CDazUtKi0lOGPMeV0E-148" value="x: int" style="text;strokeColor=none;fillColor=none;align=left;verticalAlign=top;spacingLeft=4;spacingRight=4;overflow=hidden;rotatable=0;points=[[0,0.5],[1,0.5]];portConstraint=eastwest;" parent="2-CDazUtKi0lOGPMeV0E-146" vertex="1">
          <mxGeometry y="26" width="140" height="26" as="geometry" />
        </mxCell>
        <mxCell id="2-CDazUtKi0lOGPMeV0E-149" value="y: int" style="text;strokeColor=none;fillColor=none;align=left;verticalAlign=top;spacingLeft=4;spacingRight=4;overflow=hidden;rotatable=0;points=[[0,0.5],[1,0.5]];portConstraint=eastwest;" parent="2-CDazUtKi0lOGPMeV0E-146" vertex="1">
          <mxGeometry y="52" width="140" height="26" as="geometry" />
        </mxCell>
        <mxCell id="2-CDazUtKi0lOGPMeV0E-150" value="Location (Destination)" style="swimlane;fontStyle=0;childLayout=stackLayout;horizontal=1;startSize=26;fillColor=none;horizontalStack=0;resizeParent=1;resizeParentMax=0;resizeLast=0;collapsible=1;marginBottom=0;" parent="WIyWlLk6GJQsqaUBKTNV-1" vertex="1">
          <mxGeometry x="-641" y="-200" width="140" height="78" as="geometry" />
        </mxCell>
        <mxCell id="2-CDazUtKi0lOGPMeV0E-151" value="id: int" style="text;strokeColor=none;fillColor=none;align=left;verticalAlign=top;spacingLeft=4;spacingRight=4;overflow=hidden;rotatable=0;points=[[0,0.5],[1,0.5]];portConstraint=eastwest;" parent="2-CDazUtKi0lOGPMeV0E-150" vertex="1">
          <mxGeometry y="26" width="140" height="26" as="geometry" />
        </mxCell>
        <mxCell id="2-CDazUtKi0lOGPMeV0E-152" value="coord: Coord" style="text;strokeColor=none;fillColor=none;align=left;verticalAlign=top;spacingLeft=4;spacingRight=4;overflow=hidden;rotatable=0;points=[[0,0.5],[1,0.5]];portConstraint=eastwest;" parent="2-CDazUtKi0lOGPMeV0E-150" vertex="1">
          <mxGeometry y="52" width="140" height="26" as="geometry" />
        </mxCell>
        <mxCell id="2-CDazUtKi0lOGPMeV0E-166" value="Person" style="swimlane;fontStyle=0;align=center;verticalAlign=top;childLayout=stackLayout;horizontal=1;startSize=26;horizontalStack=0;resizeParent=1;resizeParentMax=0;resizeLast=0;collapsible=1;marginBottom=0;" parent="WIyWlLk6GJQsqaUBKTNV-1" vertex="1">
          <mxGeometry x="-438" y="-230" width="160" height="190" as="geometry" />
        </mxCell>
        <mxCell id="2-CDazUtKi0lOGPMeV0E-167" value="srcLoc: Location" style="text;strokeColor=none;fillColor=none;align=left;verticalAlign=top;spacingLeft=4;spacingRight=4;overflow=hidden;rotatable=0;points=[[0,0.5],[1,0.5]];portConstraint=eastwest;" parent="2-CDazUtKi0lOGPMeV0E-166" vertex="1">
          <mxGeometry y="26" width="160" height="26" as="geometry" />
        </mxCell>
        <mxCell id="2-CDazUtKi0lOGPMeV0E-180" value="destLoc: Location&#xa;" style="text;strokeColor=none;fillColor=none;align=left;verticalAlign=top;spacingLeft=4;spacingRight=4;overflow=hidden;rotatable=0;points=[[0,0.5],[1,0.5]];portConstraint=eastwest;" parent="2-CDazUtKi0lOGPMeV0E-166" vertex="1">
          <mxGeometry y="52" width="160" height="26" as="geometry" />
        </mxCell>
        <mxCell id="2-CDazUtKi0lOGPMeV0E-181" value="coord: Coord" style="text;strokeColor=none;fillColor=none;align=left;verticalAlign=top;spacingLeft=4;spacingRight=4;overflow=hidden;rotatable=0;points=[[0,0.5],[1,0.5]];portConstraint=eastwest;" parent="2-CDazUtKi0lOGPMeV0E-166" vertex="1">
          <mxGeometry y="78" width="160" height="26" as="geometry" />
        </mxCell>
        <mxCell id="2-CDazUtKi0lOGPMeV0E-179" value="path: List[Coord]" style="text;strokeColor=none;fillColor=none;align=left;verticalAlign=top;spacingLeft=4;spacingRight=4;overflow=hidden;rotatable=0;points=[[0,0.5],[1,0.5]];portConstraint=eastwest;" parent="2-CDazUtKi0lOGPMeV0E-166" vertex="1">
          <mxGeometry y="104" width="160" height="26" as="geometry" />
        </mxCell>
        <mxCell id="2-CDazUtKi0lOGPMeV0E-168" value="" style="line;strokeWidth=1;fillColor=none;align=left;verticalAlign=middle;spacingTop=-1;spacingLeft=3;spacingRight=3;rotatable=0;labelPosition=right;points=[];portConstraint=eastwest;" parent="2-CDazUtKi0lOGPMeV0E-166" vertex="1">
          <mxGeometry y="130" width="160" height="8" as="geometry" />
        </mxCell>
        <mxCell id="2-CDazUtKi0lOGPMeV0E-169" value="nextCoord()&#xa;" style="text;strokeColor=none;fillColor=none;align=left;verticalAlign=top;spacingLeft=4;spacingRight=4;overflow=hidden;rotatable=0;points=[[0,0.5],[1,0.5]];portConstraint=eastwest;" parent="2-CDazUtKi0lOGPMeV0E-166" vertex="1">
          <mxGeometry y="138" width="160" height="26" as="geometry" />
        </mxCell>
        <mxCell id="2-CDazUtKi0lOGPMeV0E-187" value="advance()" style="text;strokeColor=none;fillColor=none;align=left;verticalAlign=top;spacingLeft=4;spacingRight=4;overflow=hidden;rotatable=0;points=[[0,0.5],[1,0.5]];portConstraint=eastwest;" parent="2-CDazUtKi0lOGPMeV0E-166" vertex="1">
          <mxGeometry y="164" width="160" height="26" as="geometry" />
        </mxCell>
        <mxCell id="2-CDazUtKi0lOGPMeV0E-208" value="LED" style="swimlane;fontStyle=0;align=center;verticalAlign=top;childLayout=stackLayout;horizontal=1;startSize=26;horizontalStack=0;resizeParent=1;resizeParentMax=0;resizeLast=0;collapsible=1;marginBottom=0;" parent="WIyWlLk6GJQsqaUBKTNV-1" vertex="1">
          <mxGeometry x="-834" y="351" width="163" height="138" as="geometry" />
        </mxCell>
        <mxCell id="2-CDazUtKi0lOGPMeV0E-209" value="coord_bounds: Tuple[Coord]" style="text;strokeColor=none;fillColor=none;align=left;verticalAlign=top;spacingLeft=4;spacingRight=4;overflow=hidden;rotatable=0;points=[[0,0.5],[1,0.5]];portConstraint=eastwest;" parent="2-CDazUtKi0lOGPMeV0E-208" vertex="1">
          <mxGeometry y="26" width="163" height="26" as="geometry" />
        </mxCell>
        <mxCell id="2-CDazUtKi0lOGPMeV0E-210" value="" style="line;strokeWidth=1;fillColor=none;align=left;verticalAlign=middle;spacingTop=-1;spacingLeft=3;spacingRight=3;rotatable=0;labelPosition=right;points=[];portConstraint=eastwest;" parent="2-CDazUtKi0lOGPMeV0E-208" vertex="1">
          <mxGeometry y="52" width="163" height="8" as="geometry" />
        </mxCell>
        <mxCell id="2-CDazUtKi0lOGPMeV0E-211" value="power_on()" style="text;strokeColor=none;fillColor=none;align=left;verticalAlign=top;spacingLeft=4;spacingRight=4;overflow=hidden;rotatable=0;points=[[0,0.5],[1,0.5]];portConstraint=eastwest;" parent="2-CDazUtKi0lOGPMeV0E-208" vertex="1">
          <mxGeometry y="60" width="163" height="26" as="geometry" />
        </mxCell>
        <mxCell id="2-CDazUtKi0lOGPMeV0E-206" value="power_off()" style="text;strokeColor=none;fillColor=none;align=left;verticalAlign=top;spacingLeft=4;spacingRight=4;overflow=hidden;rotatable=0;points=[[0,0.5],[1,0.5]];portConstraint=eastwest;" parent="2-CDazUtKi0lOGPMeV0E-208" vertex="1">
          <mxGeometry y="86" width="163" height="26" as="geometry" />
        </mxCell>
        <mxCell id="2-CDazUtKi0lOGPMeV0E-215" value="is_vertical()" style="text;strokeColor=none;fillColor=none;align=left;verticalAlign=top;spacingLeft=4;spacingRight=4;overflow=hidden;rotatable=0;points=[[0,0.5],[1,0.5]];portConstraint=eastwest;" parent="2-CDazUtKi0lOGPMeV0E-208" vertex="1">
          <mxGeometry y="112" width="163" height="26" as="geometry" />
        </mxCell>
        <mxCell id="2-CDazUtKi0lOGPMeV0E-221" style="edgeStyle=orthogonalEdgeStyle;rounded=0;orthogonalLoop=1;jettySize=auto;html=1;exitX=0;exitY=0.5;exitDx=0;exitDy=0;entryX=1;entryY=0.5;entryDx=0;entryDy=0;" parent="WIyWlLk6GJQsqaUBKTNV-1" source="2-CDazUtKi0lOGPMeV0E-216" target="2-CDazUtKi0lOGPMeV0E-206" edge="1">
          <mxGeometry relative="1" as="geometry">
            <Array as="points">
              <mxPoint x="-633" y="451" />
              <mxPoint x="-650" y="451" />
            </Array>
          </mxGeometry>
        </mxCell>
        <mxCell id="2-CDazUtKi0lOGPMeV0E-216" value="LocalController" style="swimlane;fontStyle=0;align=center;verticalAlign=top;childLayout=stackLayout;horizontal=1;startSize=26;horizontalStack=0;resizeParent=1;resizeParentMax=0;resizeLast=0;collapsible=1;marginBottom=0;" parent="WIyWlLk6GJQsqaUBKTNV-1" vertex="1">
          <mxGeometry x="-633" y="380" width="160" height="112" as="geometry" />
        </mxCell>
        <mxCell id="2-CDazUtKi0lOGPMeV0E-217" value="LEDs: List[LED]" style="text;strokeColor=none;fillColor=none;align=left;verticalAlign=top;spacingLeft=4;spacingRight=4;overflow=hidden;rotatable=0;points=[[0,0.5],[1,0.5]];portConstraint=eastwest;" parent="2-CDazUtKi0lOGPMeV0E-216" vertex="1">
          <mxGeometry y="26" width="160" height="26" as="geometry" />
        </mxCell>
        <mxCell id="2-CDazUtKi0lOGPMeV0E-218" value="" style="line;strokeWidth=1;fillColor=none;align=left;verticalAlign=middle;spacingTop=-1;spacingLeft=3;spacingRight=3;rotatable=0;labelPosition=right;points=[];portConstraint=eastwest;" parent="2-CDazUtKi0lOGPMeV0E-216" vertex="1">
          <mxGeometry y="52" width="160" height="8" as="geometry" />
        </mxCell>
        <mxCell id="2-CDazUtKi0lOGPMeV0E-219" value="has_LED()" style="text;strokeColor=none;fillColor=none;align=left;verticalAlign=top;spacingLeft=4;spacingRight=4;overflow=hidden;rotatable=0;points=[[0,0.5],[1,0.5]];portConstraint=eastwest;" parent="2-CDazUtKi0lOGPMeV0E-216" vertex="1">
          <mxGeometry y="60" width="160" height="26" as="geometry" />
        </mxCell>
        <mxCell id="2-CDazUtKi0lOGPMeV0E-213" value="power_LED()" style="text;strokeColor=none;fillColor=none;align=left;verticalAlign=top;spacingLeft=4;spacingRight=4;overflow=hidden;rotatable=0;points=[[0,0.5],[1,0.5]];portConstraint=eastwest;" parent="2-CDazUtKi0lOGPMeV0E-216" vertex="1">
          <mxGeometry y="86" width="160" height="26" as="geometry" />
        </mxCell>
        <mxCell id="n7JQaT5oOnX7TsgJz3r8-19" style="edgeStyle=orthogonalEdgeStyle;rounded=0;orthogonalLoop=1;jettySize=auto;html=1;exitX=0.5;exitY=1;exitDx=0;exitDy=0;entryX=1;entryY=0.5;entryDx=0;entryDy=0;" parent="WIyWlLk6GJQsqaUBKTNV-1" source="2-CDazUtKi0lOGPMeV0E-222" target="2-CDazUtKi0lOGPMeV0E-209" edge="1">
          <mxGeometry relative="1" as="geometry">
            <Array as="points">
              <mxPoint x="-559" y="363" />
              <mxPoint x="-655" y="363" />
              <mxPoint x="-655" y="390" />
            </Array>
          </mxGeometry>
        </mxCell>
        <mxCell id="2-CDazUtKi0lOGPMeV0E-222" value="LaneIntersection" style="swimlane;fontStyle=0;childLayout=stackLayout;horizontal=1;startSize=26;fillColor=none;horizontalStack=0;resizeParent=1;resizeParentMax=0;resizeLast=0;collapsible=1;marginBottom=0;" parent="WIyWlLk6GJQsqaUBKTNV-1" vertex="1">
          <mxGeometry x="-639" y="176" width="160" height="78" as="geometry" />
        </mxCell>
        <mxCell id="2-CDazUtKi0lOGPMeV0E-223" value="coord: Coord" style="text;strokeColor=none;fillColor=none;align=left;verticalAlign=top;spacingLeft=4;spacingRight=4;overflow=hidden;rotatable=0;points=[[0,0.5],[1,0.5]];portConstraint=eastwest;" parent="2-CDazUtKi0lOGPMeV0E-222" vertex="1">
          <mxGeometry y="26" width="160" height="26" as="geometry" />
        </mxCell>
        <mxCell id="2-CDazUtKi0lOGPMeV0E-225" value="LED: LED" style="text;strokeColor=none;fillColor=none;align=left;verticalAlign=top;spacingLeft=4;spacingRight=4;overflow=hidden;rotatable=0;points=[[0,0.5],[1,0.5]];portConstraint=eastwest;" parent="2-CDazUtKi0lOGPMeV0E-222" vertex="1">
          <mxGeometry y="52" width="160" height="26" as="geometry" />
        </mxCell>
        <mxCell id="2-CDazUtKi0lOGPMeV0E-231" style="edgeStyle=orthogonalEdgeStyle;rounded=0;orthogonalLoop=1;jettySize=auto;html=1;entryX=1;entryY=0.5;entryDx=0;entryDy=0;" parent="WIyWlLk6GJQsqaUBKTNV-1" target="n7JQaT5oOnX7TsgJz3r8-14" edge="1">
          <mxGeometry relative="1" as="geometry">
            <mxPoint x="-639.0000000000002" y="241.00000000000023" as="sourcePoint" />
            <mxPoint x="-669.9999999999998" y="241" as="targetPoint" />
            <Array as="points">
              <mxPoint x="-653" y="241" />
              <mxPoint x="-653" y="293" />
            </Array>
          </mxGeometry>
        </mxCell>
        <mxCell id="2-CDazUtKi0lOGPMeV0E-245" style="edgeStyle=orthogonalEdgeStyle;rounded=0;orthogonalLoop=1;jettySize=auto;html=1;entryX=1;entryY=0.5;entryDx=0;entryDy=0;" parent="WIyWlLk6GJQsqaUBKTNV-1" source="2-CDazUtKi0lOGPMeV0E-235" target="2-CDazUtKi0lOGPMeV0E-223" edge="1">
          <mxGeometry relative="1" as="geometry" />
        </mxCell>
        <mxCell id="2-CDazUtKi0lOGPMeV0E-235" value="Intersection" style="swimlane;fontStyle=0;align=center;verticalAlign=top;childLayout=stackLayout;horizontal=1;startSize=26;horizontalStack=0;resizeParent=1;resizeParentMax=0;resizeLast=0;collapsible=1;marginBottom=0;" parent="WIyWlLk6GJQsqaUBKTNV-1" vertex="1">
          <mxGeometry x="-417" y="220" width="237" height="242" as="geometry" />
        </mxCell>
        <mxCell id="2-CDazUtKi0lOGPMeV0E-240" value="interID: int" style="text;strokeColor=none;fillColor=none;align=left;verticalAlign=top;spacingLeft=4;spacingRight=4;overflow=hidden;rotatable=0;points=[[0,0.5],[1,0.5]];portConstraint=eastwest;" parent="2-CDazUtKi0lOGPMeV0E-235" vertex="1">
          <mxGeometry y="26" width="237" height="26" as="geometry" />
        </mxCell>
        <mxCell id="2-CDazUtKi0lOGPMeV0E-236" value="exit_laneIntersections: LaneIntersection" style="text;strokeColor=none;fillColor=none;align=left;verticalAlign=top;spacingLeft=4;spacingRight=4;overflow=hidden;rotatable=0;points=[[0,0.5],[1,0.5]];portConstraint=eastwest;" parent="2-CDazUtKi0lOGPMeV0E-235" vertex="1">
          <mxGeometry y="52" width="237" height="26" as="geometry" />
        </mxCell>
        <mxCell id="2-CDazUtKi0lOGPMeV0E-214" value="entry_laneIntersections: LaneIntersection" style="text;strokeColor=none;fillColor=none;align=left;verticalAlign=top;spacingLeft=4;spacingRight=4;overflow=hidden;rotatable=0;points=[[0,0.5],[1,0.5]];portConstraint=eastwest;" parent="2-CDazUtKi0lOGPMeV0E-235" vertex="1">
          <mxGeometry y="78" width="237" height="26" as="geometry" />
        </mxCell>
        <mxCell id="2-CDazUtKi0lOGPMeV0E-241" value="coords: List[Coord]" style="text;strokeColor=none;fillColor=none;align=left;verticalAlign=top;spacingLeft=4;spacingRight=4;overflow=hidden;rotatable=0;points=[[0,0.5],[1,0.5]];portConstraint=eastwest;" parent="2-CDazUtKi0lOGPMeV0E-235" vertex="1">
          <mxGeometry y="104" width="237" height="26" as="geometry" />
        </mxCell>
        <mxCell id="2-CDazUtKi0lOGPMeV0E-243" value="local_controller: LocalController" style="text;strokeColor=none;fillColor=none;align=left;verticalAlign=top;spacingLeft=4;spacingRight=4;overflow=hidden;rotatable=0;points=[[0,0.5],[1,0.5]];portConstraint=eastwest;" parent="2-CDazUtKi0lOGPMeV0E-235" vertex="1">
          <mxGeometry y="130" width="237" height="26" as="geometry" />
        </mxCell>
        <mxCell id="2-CDazUtKi0lOGPMeV0E-244" value="queue: Queue" style="text;strokeColor=none;fillColor=none;align=left;verticalAlign=top;spacingLeft=4;spacingRight=4;overflow=hidden;rotatable=0;points=[[0,0.5],[1,0.5]];portConstraint=eastwest;" parent="2-CDazUtKi0lOGPMeV0E-235" vertex="1">
          <mxGeometry y="156" width="237" height="26" as="geometry" />
        </mxCell>
        <mxCell id="2-CDazUtKi0lOGPMeV0E-237" value="" style="line;strokeWidth=1;fillColor=none;align=left;verticalAlign=middle;spacingTop=-1;spacingLeft=3;spacingRight=3;rotatable=0;labelPosition=right;points=[];portConstraint=eastwest;" parent="2-CDazUtKi0lOGPMeV0E-235" vertex="1">
          <mxGeometry y="182" width="237" height="8" as="geometry" />
        </mxCell>
        <mxCell id="2-CDazUtKi0lOGPMeV0E-238" value="contains_coord()" style="text;strokeColor=none;fillColor=none;align=left;verticalAlign=top;spacingLeft=4;spacingRight=4;overflow=hidden;rotatable=0;points=[[0,0.5],[1,0.5]];portConstraint=eastwest;" parent="2-CDazUtKi0lOGPMeV0E-235" vertex="1">
          <mxGeometry y="190" width="237" height="26" as="geometry" />
        </mxCell>
        <mxCell id="2-CDazUtKi0lOGPMeV0E-239" value="is_occupied()" style="text;strokeColor=none;fillColor=none;align=left;verticalAlign=top;spacingLeft=4;spacingRight=4;overflow=hidden;rotatable=0;points=[[0,0.5],[1,0.5]];portConstraint=eastwest;" parent="2-CDazUtKi0lOGPMeV0E-235" vertex="1">
          <mxGeometry y="216" width="237" height="26" as="geometry" />
        </mxCell>
        <mxCell id="2-CDazUtKi0lOGPMeV0E-246" style="edgeStyle=orthogonalEdgeStyle;rounded=0;orthogonalLoop=1;jettySize=auto;html=1;exitX=0;exitY=0.5;exitDx=0;exitDy=0;entryX=1;entryY=0.5;entryDx=0;entryDy=0;" parent="WIyWlLk6GJQsqaUBKTNV-1" source="2-CDazUtKi0lOGPMeV0E-243" target="2-CDazUtKi0lOGPMeV0E-219" edge="1">
          <mxGeometry relative="1" as="geometry" />
        </mxCell>
        <mxCell id="2-CDazUtKi0lOGPMeV0E-248" style="edgeStyle=orthogonalEdgeStyle;rounded=0;orthogonalLoop=1;jettySize=auto;html=1;exitX=0;exitY=0.5;exitDx=0;exitDy=0;entryX=1.001;entryY=0.151;entryDx=0;entryDy=0;entryPerimeter=0;" parent="WIyWlLk6GJQsqaUBKTNV-1" source="2-CDazUtKi0lOGPMeV0E-179" target="2-CDazUtKi0lOGPMeV0E-152" edge="1">
          <mxGeometry relative="1" as="geometry" />
        </mxCell>
        <mxCell id="2-CDazUtKi0lOGPMeV0E-253" value="" style="edgeStyle=orthogonalEdgeStyle;rounded=0;orthogonalLoop=1;jettySize=auto;html=1;" parent="WIyWlLk6GJQsqaUBKTNV-1" source="2-CDazUtKi0lOGPMeV0E-250" target="2-CDazUtKi0lOGPMeV0E-252" edge="1">
          <mxGeometry relative="1" as="geometry" />
        </mxCell>
        <mxCell id="2-CDazUtKi0lOGPMeV0E-250" value="Simulator GUI Process" style="rounded=0;whiteSpace=wrap;html=1;" parent="WIyWlLk6GJQsqaUBKTNV-1" vertex="1">
          <mxGeometry x="-699" y="903" width="120" height="102" as="geometry" />
        </mxCell>
        <mxCell id="2-CDazUtKi0lOGPMeV0E-257" style="edgeStyle=orthogonalEdgeStyle;rounded=0;orthogonalLoop=1;jettySize=auto;html=1;entryX=0.997;entryY=0.54;entryDx=0;entryDy=0;entryPerimeter=0;" parent="WIyWlLk6GJQsqaUBKTNV-1" source="2-CDazUtKi0lOGPMeV0E-252" target="2-CDazUtKi0lOGPMeV0E-256" edge="1">
          <mxGeometry relative="1" as="geometry" />
        </mxCell>
        <mxCell id="2-CDazUtKi0lOGPMeV0E-252" value="Dummy Localization Process" style="rounded=0;whiteSpace=wrap;html=1;" parent="WIyWlLk6GJQsqaUBKTNV-1" vertex="1">
          <mxGeometry x="-499" y="903" width="120" height="102" as="geometry" />
        </mxCell>
        <mxCell id="2-CDazUtKi0lOGPMeV0E-259" style="edgeStyle=orthogonalEdgeStyle;rounded=0;orthogonalLoop=1;jettySize=auto;html=1;exitX=0;exitY=0.5;exitDx=0;exitDy=0;" parent="WIyWlLk6GJQsqaUBKTNV-1" source="2-CDazUtKi0lOGPMeV0E-256" target="2-CDazUtKi0lOGPMeV0E-250" edge="1">
          <mxGeometry relative="1" as="geometry" />
        </mxCell>
        <mxCell id="2-CDazUtKi0lOGPMeV0E-256" value="Main Controller Process" style="rounded=0;whiteSpace=wrap;html=1;" parent="WIyWlLk6GJQsqaUBKTNV-1" vertex="1">
          <mxGeometry x="-600" y="1050" width="120" height="102" as="geometry" />
        </mxCell>
        <mxCell id="2-CDazUtKi0lOGPMeV0E-258" value="&lt;span style=&quot;text-align: center&quot;&gt;People position data&lt;/span&gt;" style="text;html=1;strokeColor=none;fillColor=none;spacing=5;spacingTop=-20;whiteSpace=wrap;overflow=hidden;rounded=0;" parent="WIyWlLk6GJQsqaUBKTNV-1" vertex="1">
          <mxGeometry x="-432" y="1050" width="83" height="62" as="geometry" />
        </mxCell>
        <mxCell id="2-CDazUtKi0lOGPMeV0E-260" value="List of LEDs on and off" style="text;html=1;strokeColor=none;fillColor=none;spacing=5;spacingTop=-20;whiteSpace=wrap;overflow=hidden;rounded=0;" parent="WIyWlLk6GJQsqaUBKTNV-1" vertex="1">
          <mxGeometry x="-733" y="1048" width="83" height="62" as="geometry" />
        </mxCell>
        <mxCell id="2-CDazUtKi0lOGPMeV0E-261" value="People position data" style="text;html=1;strokeColor=none;fillColor=none;align=center;verticalAlign=middle;whiteSpace=wrap;rounded=0;" parent="WIyWlLk6GJQsqaUBKTNV-1" vertex="1">
          <mxGeometry x="-559" y="914" width="40" height="20" as="geometry" />
        </mxCell>
        <mxCell id="2-CDazUtKi0lOGPMeV0E-279" style="edgeStyle=orthogonalEdgeStyle;rounded=0;orthogonalLoop=1;jettySize=auto;html=1;exitX=0.5;exitY=0;exitDx=0;exitDy=0;entryX=0.466;entryY=1.027;entryDx=0;entryDy=0;entryPerimeter=0;" parent="WIyWlLk6GJQsqaUBKTNV-1" source="2-CDazUtKi0lOGPMeV0E-268" target="2-CDazUtKi0lOGPMeV0E-239" edge="1">
          <mxGeometry relative="1" as="geometry">
            <mxPoint x="-300" y="476" as="targetPoint" />
            <Array as="points">
              <mxPoint x="-306" y="553" />
              <mxPoint x="-306" y="508" />
            </Array>
          </mxGeometry>
        </mxCell>
        <mxCell id="2-CDazUtKi0lOGPMeV0E-268" value="MainController" style="swimlane;fontStyle=0;align=center;verticalAlign=top;childLayout=stackLayout;horizontal=1;startSize=26;horizontalStack=0;resizeParent=1;resizeParentMax=0;resizeLast=0;collapsible=1;marginBottom=0;" parent="WIyWlLk6GJQsqaUBKTNV-1" vertex="1">
          <mxGeometry x="-407" y="552" width="208.5" height="112" as="geometry" />
        </mxCell>
        <mxCell id="2-CDazUtKi0lOGPMeV0E-269" value="Intersections: List[Intersection]" style="text;strokeColor=none;fillColor=none;align=left;verticalAlign=top;spacingLeft=4;spacingRight=4;overflow=hidden;rotatable=0;points=[[0,0.5],[1,0.5]];portConstraint=eastwest;" parent="2-CDazUtKi0lOGPMeV0E-268" vertex="1">
          <mxGeometry y="26" width="208.5" height="26" as="geometry" />
        </mxCell>
        <mxCell id="2-CDazUtKi0lOGPMeV0E-273" value="CameraDataReceiverQueue: Queue" style="text;strokeColor=none;fillColor=none;align=left;verticalAlign=top;spacingLeft=4;spacingRight=4;overflow=hidden;rotatable=0;points=[[0,0.5],[1,0.5]];portConstraint=eastwest;" parent="2-CDazUtKi0lOGPMeV0E-268" vertex="1">
          <mxGeometry y="52" width="208.5" height="26" as="geometry" />
        </mxCell>
        <mxCell id="2-CDazUtKi0lOGPMeV0E-270" value="" style="line;strokeWidth=1;fillColor=none;align=left;verticalAlign=middle;spacingTop=-1;spacingLeft=3;spacingRight=3;rotatable=0;labelPosition=right;points=[];portConstraint=eastwest;" parent="2-CDazUtKi0lOGPMeV0E-268" vertex="1">
          <mxGeometry y="78" width="208.5" height="8" as="geometry" />
        </mxCell>
        <mxCell id="2-CDazUtKi0lOGPMeV0E-271" value="run()" style="text;strokeColor=none;fillColor=none;align=left;verticalAlign=top;spacingLeft=4;spacingRight=4;overflow=hidden;rotatable=0;points=[[0,0.5],[1,0.5]];portConstraint=eastwest;" parent="2-CDazUtKi0lOGPMeV0E-268" vertex="1">
          <mxGeometry y="86" width="208.5" height="26" as="geometry" />
        </mxCell>
        <mxCell id="2-CDazUtKi0lOGPMeV0E-277" value="" style="endArrow=classic;html=1;exitX=0;exitY=0.5;exitDx=0;exitDy=0;entryX=1;entryY=0.5;entryDx=0;entryDy=0;shape=flexArrow;" parent="WIyWlLk6GJQsqaUBKTNV-1" source="2-CDazUtKi0lOGPMeV0E-273" edge="1">
          <mxGeometry width="50" height="50" relative="1" as="geometry">
            <mxPoint x="-380" y="574" as="sourcePoint" />
            <mxPoint x="-458" y="617" as="targetPoint" />
          </mxGeometry>
        </mxCell>
        <mxCell id="2-CDazUtKi0lOGPMeV0E-280" value="Camera" style="swimlane;fontStyle=0;align=center;verticalAlign=top;childLayout=stackLayout;horizontal=1;startSize=26;horizontalStack=0;resizeParent=1;resizeParentMax=0;resizeLast=0;collapsible=1;marginBottom=0;" parent="WIyWlLk6GJQsqaUBKTNV-1" vertex="1">
          <mxGeometry x="-849" y="554" width="228.5" height="112" as="geometry" />
        </mxCell>
        <mxCell id="2-CDazUtKi0lOGPMeV0E-287" value="MainControllerDataSenderQueue:Queue" style="text;strokeColor=none;fillColor=none;align=left;verticalAlign=top;spacingLeft=4;spacingRight=4;overflow=hidden;rotatable=0;points=[[0,0.5],[1,0.5]];portConstraint=eastwest;" parent="2-CDazUtKi0lOGPMeV0E-280" vertex="1">
          <mxGeometry y="26" width="228.5" height="26" as="geometry" />
        </mxCell>
        <mxCell id="2-CDazUtKi0lOGPMeV0E-289" value="Floormap: List[Coord]" style="text;strokeColor=none;fillColor=none;align=left;verticalAlign=top;spacingLeft=4;spacingRight=4;overflow=hidden;rotatable=0;points=[[0,0.5],[1,0.5]];portConstraint=eastwest;" parent="2-CDazUtKi0lOGPMeV0E-280" vertex="1">
          <mxGeometry y="52" width="228.5" height="26" as="geometry" />
        </mxCell>
        <mxCell id="2-CDazUtKi0lOGPMeV0E-284" value="" style="line;strokeWidth=1;fillColor=none;align=left;verticalAlign=middle;spacingTop=-1;spacingLeft=3;spacingRight=3;rotatable=0;labelPosition=right;points=[];portConstraint=eastwest;" parent="2-CDazUtKi0lOGPMeV0E-280" vertex="1">
          <mxGeometry y="78" width="228.5" height="8" as="geometry" />
        </mxCell>
        <mxCell id="2-CDazUtKi0lOGPMeV0E-285" value="run()" style="text;strokeColor=none;fillColor=none;align=left;verticalAlign=top;spacingLeft=4;spacingRight=4;overflow=hidden;rotatable=0;points=[[0,0.5],[1,0.5]];portConstraint=eastwest;" parent="2-CDazUtKi0lOGPMeV0E-280" vertex="1">
          <mxGeometry y="86" width="228.5" height="26" as="geometry" />
        </mxCell>
        <mxCell id="2-CDazUtKi0lOGPMeV0E-286" value="" style="endArrow=classic;html=1;entryX=0;entryY=0.5;entryDx=0;entryDy=0;shape=flexArrow;exitX=0.997;exitY=0.395;exitDx=0;exitDy=0;exitPerimeter=0;" parent="WIyWlLk6GJQsqaUBKTNV-1" source="2-CDazUtKi0lOGPMeV0E-289" edge="1">
          <mxGeometry width="50" height="50" relative="1" as="geometry">
            <mxPoint x="-620.5" y="590.634" as="sourcePoint" />
            <mxPoint x="-568" y="617" as="targetPoint" />
          </mxGeometry>
        </mxCell>
        <mxCell id="2-CDazUtKi0lOGPMeV0E-290" value="Simulator" style="swimlane;fontStyle=0;align=center;verticalAlign=top;childLayout=stackLayout;horizontal=1;startSize=26;horizontalStack=0;resizeParent=1;resizeParentMax=0;resizeLast=0;collapsible=1;marginBottom=0;" parent="WIyWlLk6GJQsqaUBKTNV-1" vertex="1">
          <mxGeometry x="-295" y="806" width="245" height="138" as="geometry" />
        </mxCell>
        <mxCell id="2-CDazUtKi0lOGPMeV0E-291" value="CameraDataSenderQueue: Queue" style="text;strokeColor=none;fillColor=none;align=left;verticalAlign=top;spacingLeft=4;spacingRight=4;overflow=hidden;rotatable=0;points=[[0,0.5],[1,0.5]];portConstraint=eastwest;" parent="2-CDazUtKi0lOGPMeV0E-290" vertex="1">
          <mxGeometry y="26" width="245" height="26" as="geometry" />
        </mxCell>
        <mxCell id="2-CDazUtKi0lOGPMeV0E-292" value="MainControllerDataReceiverQueue: Queue" style="text;strokeColor=none;fillColor=none;align=left;verticalAlign=top;spacingLeft=4;spacingRight=4;overflow=hidden;rotatable=0;points=[[0,0.5],[1,0.5]];portConstraint=eastwest;" parent="2-CDazUtKi0lOGPMeV0E-290" vertex="1">
          <mxGeometry y="52" width="245" height="26" as="geometry" />
        </mxCell>
        <mxCell id="2-CDazUtKi0lOGPMeV0E-293" value="Floormap: List[Coord]" style="text;strokeColor=none;fillColor=none;align=left;verticalAlign=top;spacingLeft=4;spacingRight=4;overflow=hidden;rotatable=0;points=[[0,0.5],[1,0.5]];portConstraint=eastwest;" parent="2-CDazUtKi0lOGPMeV0E-290" vertex="1">
          <mxGeometry y="78" width="245" height="26" as="geometry" />
        </mxCell>
        <mxCell id="2-CDazUtKi0lOGPMeV0E-294" value="" style="line;strokeWidth=1;fillColor=none;align=left;verticalAlign=middle;spacingTop=-1;spacingLeft=3;spacingRight=3;rotatable=0;labelPosition=right;points=[];portConstraint=eastwest;" parent="2-CDazUtKi0lOGPMeV0E-290" vertex="1">
          <mxGeometry y="104" width="245" height="8" as="geometry" />
        </mxCell>
        <mxCell id="2-CDazUtKi0lOGPMeV0E-295" value="run()" style="text;strokeColor=none;fillColor=none;align=left;verticalAlign=top;spacingLeft=4;spacingRight=4;overflow=hidden;rotatable=0;points=[[0,0.5],[1,0.5]];portConstraint=eastwest;" parent="2-CDazUtKi0lOGPMeV0E-290" vertex="1">
          <mxGeometry y="112" width="245" height="26" as="geometry" />
        </mxCell>
        <mxCell id="2-CDazUtKi0lOGPMeV0E-296" value="" style="endArrow=classic;html=1;shape=flexArrow;exitX=0.5;exitY=0;exitDx=0;exitDy=0;" parent="WIyWlLk6GJQsqaUBKTNV-1" source="2-CDazUtKi0lOGPMeV0E-290" edge="1">
          <mxGeometry width="50" height="50" relative="1" as="geometry">
            <mxPoint x="-579" y="670.6296851574211" as="sourcePoint" />
            <mxPoint x="-77" y="682" as="targetPoint" />
          </mxGeometry>
        </mxCell>
        <mxCell id="2-CDazUtKi0lOGPMeV0E-306" value="Process" style="swimlane;fontStyle=0;align=center;verticalAlign=top;childLayout=stackLayout;horizontal=1;startSize=26;horizontalStack=0;resizeParent=1;resizeParentMax=0;resizeLast=0;collapsible=1;marginBottom=0;" parent="WIyWlLk6GJQsqaUBKTNV-1" vertex="1">
          <mxGeometry x="-568" y="583.5" width="110" height="60" as="geometry" />
        </mxCell>
        <mxCell id="2-CDazUtKi0lOGPMeV0E-308" value="" style="line;strokeWidth=1;fillColor=none;align=left;verticalAlign=middle;spacingTop=-1;spacingLeft=3;spacingRight=3;rotatable=0;labelPosition=right;points=[];portConstraint=eastwest;" parent="2-CDazUtKi0lOGPMeV0E-306" vertex="1">
          <mxGeometry y="26" width="110" height="8" as="geometry" />
        </mxCell>
        <mxCell id="2-CDazUtKi0lOGPMeV0E-309" value="..." style="text;strokeColor=none;fillColor=none;align=left;verticalAlign=top;spacingLeft=4;spacingRight=4;overflow=hidden;rotatable=0;points=[[0,0.5],[1,0.5]];portConstraint=eastwest;" parent="2-CDazUtKi0lOGPMeV0E-306" vertex="1">
          <mxGeometry y="34" width="110" height="26" as="geometry" />
        </mxCell>
        <mxCell id="n7JQaT5oOnX7TsgJz3r8-13" value="Lane" style="swimlane;fontStyle=0;align=center;verticalAlign=top;childLayout=stackLayout;horizontal=1;startSize=26;horizontalStack=0;resizeParent=1;resizeParentMax=0;resizeLast=0;collapsible=1;marginBottom=0;" parent="WIyWlLk6GJQsqaUBKTNV-1" vertex="1">
          <mxGeometry x="-834" y="254" width="166.15" height="79" as="geometry" />
        </mxCell>
        <mxCell id="n7JQaT5oOnX7TsgJz3r8-14" value="laneID: int" style="text;strokeColor=none;fillColor=none;align=left;verticalAlign=top;spacingLeft=4;spacingRight=4;overflow=hidden;rotatable=0;points=[[0,0.5],[1,0.5]];portConstraint=eastwest;" parent="n7JQaT5oOnX7TsgJz3r8-13" vertex="1">
          <mxGeometry y="26" width="166.15" height="26" as="geometry" />
        </mxCell>
        <mxCell id="n7JQaT5oOnX7TsgJz3r8-17" value="path: List[Coord]" style="text;strokeColor=none;fillColor=none;align=left;verticalAlign=top;spacingLeft=4;spacingRight=4;overflow=hidden;rotatable=0;points=[[0,0.5],[1,0.5]];portConstraint=eastwest;" parent="n7JQaT5oOnX7TsgJz3r8-13" vertex="1">
          <mxGeometry y="52" width="166.15" height="27" as="geometry" />
        </mxCell>
        <mxCell id="n7JQaT5oOnX7TsgJz3r8-24" style="edgeStyle=orthogonalEdgeStyle;rounded=0;orthogonalLoop=1;jettySize=auto;html=1;exitX=0;exitY=0.5;exitDx=0;exitDy=0;entryX=0.992;entryY=0.194;entryDx=0;entryDy=0;entryPerimeter=0;" parent="WIyWlLk6GJQsqaUBKTNV-1" source="2-CDazUtKi0lOGPMeV0E-223" target="2-CDazUtKi0lOGPMeV0E-149" edge="1">
          <mxGeometry relative="1" as="geometry" />
        </mxCell>
        <mxCell id="n7JQaT5oOnX7TsgJz3r8-25" style="edgeStyle=orthogonalEdgeStyle;rounded=0;orthogonalLoop=1;jettySize=auto;html=1;exitX=0;exitY=0.5;exitDx=0;exitDy=0;entryX=1.017;entryY=0.1;entryDx=0;entryDy=0;entryPerimeter=0;" parent="WIyWlLk6GJQsqaUBKTNV-1" source="2-CDazUtKi0lOGPMeV0E-236" target="2-CDazUtKi0lOGPMeV0E-148" edge="1">
          <mxGeometry relative="1" as="geometry">
            <Array as="points">
              <mxPoint x="-431" y="285" />
              <mxPoint x="-431" y="159" />
              <mxPoint x="-668" y="159" />
              <mxPoint x="-668" y="187" />
            </Array>
          </mxGeometry>
        </mxCell>
        <mxCell id="Kb7l_ePSBx4M9OJZE0mj-2" value="" style="edgeStyle=orthogonalEdgeStyle;rounded=0;orthogonalLoop=1;jettySize=auto;html=1;" edge="1" parent="WIyWlLk6GJQsqaUBKTNV-1" source="Kb7l_ePSBx4M9OJZE0mj-0" target="Kb7l_ePSBx4M9OJZE0mj-1">
          <mxGeometry relative="1" as="geometry" />
        </mxCell>
        <mxCell id="Kb7l_ePSBx4M9OJZE0mj-0" value="Localization Process" style="rounded=0;whiteSpace=wrap;html=1;" vertex="1" parent="WIyWlLk6GJQsqaUBKTNV-1">
          <mxGeometry x="-344" y="1231" width="120" height="102" as="geometry" />
        </mxCell>
        <mxCell id="Kb7l_ePSBx4M9OJZE0mj-1" value="Main Controller Process" style="rounded=0;whiteSpace=wrap;html=1;" vertex="1" parent="WIyWlLk6GJQsqaUBKTNV-1">
          <mxGeometry x="-568" y="1231" width="120" height="102" as="geometry" />
        </mxCell>
        <mxCell id="Kb7l_ePSBx4M9OJZE0mj-3" value="&lt;span style=&quot;text-align: center&quot;&gt;People position data&lt;/span&gt;" style="text;html=1;strokeColor=none;fillColor=none;spacing=5;spacingTop=-20;whiteSpace=wrap;overflow=hidden;rounded=0;" vertex="1" parent="WIyWlLk6GJQsqaUBKTNV-1">
          <mxGeometry x="-432" y="1251" width="83" height="62" as="geometry" />
        </mxCell>
        <mxCell id="Kb7l_ePSBx4M9OJZE0mj-4" value="&lt;span&gt;List of coordinates and&amp;nbsp;&lt;/span&gt;2D matrix, element value corresponds to coordinate state (empty, occupied)&lt;span&gt;&lt;br&gt;&amp;nbsp;&lt;/span&gt;" style="strokeWidth=2;html=1;shape=mxgraph.flowchart.stored_data;whiteSpace=wrap;" vertex="1" parent="WIyWlLk6GJQsqaUBKTNV-1">
          <mxGeometry x="1440" y="422" width="108.5" height="121" as="geometry" />
        </mxCell>
        <mxCell id="Kb7l_ePSBx4M9OJZE0mj-5" value="Obtain people coordinate with project transformation" style="rounded=1;whiteSpace=wrap;html=1;fontSize=12;glass=0;strokeWidth=1;shadow=0;" vertex="1" parent="WIyWlLk6GJQsqaUBKTNV-1">
          <mxGeometry x="1452" y="185.97" width="120" height="51" as="geometry" />
        </mxCell>
      </root>
    </mxGraphModel>
  </diagram>
</mxfile>
